<?xml version="1.0" encoding="UTF-8"?>
<svg version="1.1" xmlns="http://www.w3.org/2000/svg" width="285" height="277">
<path d="M0 0 C94.05 0 188.1 0 285 0 C285 91.41 285 182.82 285 277 C190.95 277 96.9 277 0 277 C0 185.59 0 94.18 0 0 Z " fill="#FEFCFD" transform="translate(0,0)"/>
<path d="M0 0 C0.93714844 0.38414062 1.87429687 0.76828125 2.83984375 1.1640625 C9.33518218 4.10648083 14.66550358 8.31583757 20 13 C21.03447266 13.89138672 21.03447266 13.89138672 22.08984375 14.80078125 C34.63382452 26.40085851 42.39835985 42.99711808 43.40625 60.0234375 C44.06152173 82.83495217 37.15374608 100.88221716 21.6015625 117.57421875 C12.05814533 126.931353 -0.01142495 132.95422949 -13 136 C-13.90093384 136.25475098 -13.90093384 136.25475098 -14.82006836 136.51464844 C-31.74191447 140.28221816 -50.26131246 136.40325753 -65 127.9140625 C-73.18660844 122.69083576 -79.94046094 116.58098177 -86 109 C-86.53367187 108.33742188 -87.06734375 107.67484375 -87.6171875 106.9921875 C-98.57724515 92.0569794 -101.92574151 72.32270248 -99.5 54.28125 C-95.71229603 34.82622505 -85.48873507 17.80817075 -69.08837891 6.42871094 C-48.80311 -7.03530862 -22.43908784 -9.5902595 0 0 Z " fill="#F20202" transform="translate(169,133)"/>
<path d="M0 0 C34 0 34 0 44 5 C49.8589709 10.8589709 52.28126569 15.31391234 52.375 23.75 C52.25199395 31.58138521 50.64493297 36.78318963 45.6875 42.8125 C38.4743074 48.68370328 33.71798699 49.55733607 24.5625 49.25 C21.076875 49.1675 17.59125 49.085 14 49 C14 57.58 14 66.16 14 75 C9.38 75 4.76 75 0 75 C0 50.25 0 25.5 0 0 Z " fill="#080708" transform="translate(143,19)"/>
<path d="M0 0 C10.89 0 21.78 0 33 0 C33.08412475 7.40064141 33.16423129 14.79952882 33.20700073 22.20023346 C33.22803329 25.64728979 33.25608951 29.09394604 33.30175781 32.54077148 C33.35394646 36.50499472 33.37302121 40.46906048 33.390625 44.43359375 C33.42159271 46.2669352 33.42159271 46.2669352 33.45318604 48.13731384 C33.45542566 56.74018406 32.17837425 63.02703219 26.75 69.8125 C19.47300886 75.60101568 13.33083972 77.05535015 4 76 C-1.80064685 74.60612922 -6.69101255 71.07388422 -10.26171875 66.3203125 C-13.77509113 60.37839851 -13.30741777 54.76319104 -13 48 C-8.71 48 -4.42 48 0 48 C0.42317708 50.47395833 0.84635417 52.94791667 1.26953125 55.421875 C2.08517495 58.30061748 2.86072088 59.9039872 5 62 C7.39639308 62.63158698 7.39639308 62.63158698 10 62.5 C10.86625 62.5103125 11.7325 62.520625 12.625 62.53125 C15.11049546 62.21026609 15.11049546 62.21026609 16.62141418 60.25909424 C18.18499289 57.69685139 18.39150676 56.29830816 18.43237305 53.32324219 C18.45216721 52.40258972 18.47196136 51.48193726 18.49235535 50.53338623 C18.49874527 49.54783752 18.50513519 48.56228882 18.51171875 47.546875 C18.52966995 46.53151672 18.54762115 45.51615845 18.56611633 44.47003174 C18.62025707 41.23006328 18.65412762 37.99024247 18.6875 34.75 C18.72066969 32.55206277 18.75515902 30.35414504 18.79101562 28.15625 C18.87598597 22.77093979 18.94277959 17.38567367 19 12 C12.73 12 6.46 12 0 12 C0 8.04 0 4.08 0 0 Z " fill="#0B0A0B" transform="translate(36,19)"/>
<path d="M0 0 C20.13 0 40.26 0 61 0 C61 3.63 61 7.26 61 11 C53.08 11 45.16 11 37 11 C37 31.79 37 52.58 37 74 C32.71 74 28.42 74 24 74 C24 53.21 24 32.42 24 11 C16.08 11 8.16 11 0 11 C0 7.37 0 3.74 0 0 Z " fill="#010001" transform="translate(199,20)"/>
<path d="M0 0 C4.29 0 8.58 0 13 0 C13 20.79 13 41.58 13 63 C23.89 63 34.78 63 46 63 C46 66.96 46 70.92 46 75 C30.82 75 15.64 75 0 75 C0 50.25 0 25.5 0 0 Z " fill="#060506" transform="translate(87,19)"/>
<path d="M0 0 C2.64 0 5.28 0 8 0 C10.12424344 2.23672229 11.33974296 3.87968205 12.8125 6.5 C13.65562489 7.87878449 14.50074879 9.25634818 15.34765625 10.6328125 C15.77836426 11.35114258 16.20907227 12.06947266 16.65283203 12.80957031 C18.87824517 16.42798398 21.31794435 19.89360141 23.75 23.375 C27.56270566 28.87714692 31.28585166 34.42877749 35 40 C35.33 26.8 35.66 13.6 36 0 C38.64 0 41.28 0 44 0 C44 18.48 44 36.96 44 56 C36 56 36 56 34.12060547 54.58911133 C33.70697754 53.9267749 33.29334961 53.26443848 32.8671875 52.58203125 C32.37766602 51.83171631 31.88814453 51.08140137 31.38378906 50.30834961 C30.88588867 49.48471924 30.38798828 48.66108887 29.875 47.8125 C28.76309885 46.08067907 27.65111656 44.34891024 26.5390625 42.6171875 C25.96704102 41.70420898 25.39501953 40.79123047 24.80566406 39.85058594 C21.72034379 34.97981802 18.47095491 30.21913662 15.25 25.4375 C14.06541575 23.66689624 12.88294119 21.8948782 11.703125 20.12109375 C11.20458008 19.3727124 10.70603516 18.62433105 10.19238281 17.85327148 C9 16 9 16 8 14 C7.67 27.53 7.34 41.06 7 55 C4.69 55 2.38 55 0 55 C0 36.85 0 18.7 0 0 Z " fill="#FEF5F6" transform="translate(94,168)"/>
<path d="M0 0 C10.89 0 21.78 0 33 0 C33 6.43831003 32.97289427 6.74995797 28.8125 10.9375 C25.12322228 14.78389207 21.97501176 18.58546641 19 23 C20.2684375 23.0928125 20.2684375 23.0928125 21.5625 23.1875 C26.34836219 24.31870379 30.43388695 26.60934399 33.1796875 30.80078125 C35.28170647 36.43619401 34.89008036 43.0418232 32.4375 48.4375 C27.45147953 53.67921382 23.10345422 56.67816045 15.8125 57.25 C8.8397543 56.79277077 3.16599055 54.83270084 -2 50 C-1.34 48.35 -0.68 46.7 0 45 C4 45 4 45 6.625 46.5 C11.17071589 48.52031817 15.09930266 48.8480408 20 48 C23.12809283 45.99802059 24.62325758 44.71400832 25.43359375 41.02734375 C25.63136728 37.82101526 25.23969439 35.43373271 23.6875 32.625 C20.07618879 30.44141648 16.62681664 30.18164073 12.4609375 29.78515625 C10 29 10 29 8.6640625 26.43359375 C8.33535156 25.22896484 8.33535156 25.22896484 8 24 C8.88751953 23.02160156 8.88751953 23.02160156 9.79296875 22.0234375 C10.97826172 20.71246094 10.97826172 20.71246094 12.1875 19.375 C13.35345703 18.08722656 13.35345703 18.08722656 14.54296875 16.7734375 C17.08810183 13.90055279 19.54289513 10.94852584 22 8 C14.74 7.67 7.48 7.34 0 7 C0 4.69 0 2.38 0 0 Z " fill="#FEEFF0" transform="translate(151,168)"/>
<path d="M0 0 C17.27678571 -0.80357143 17.27678571 -0.80357143 21.5 2.875 C24.70505576 6.40397097 25.29365881 9.07711057 25.21484375 13.90234375 C24.8823574 17.14861956 23.81272259 19.31216995 22 22 C17.56060252 25.5649707 13.60238895 25.36314323 8.1875 25.1875 C4.1346875 25.0946875 4.1346875 25.0946875 0 25 C0 16.75 0 8.5 0 0 Z " fill="#F9F8F9" transform="translate(157,31)"/>
</svg>
