<?xml version="1.0" encoding="UTF-8"?>
<svg version="1.1" xmlns="http://www.w3.org/2000/svg" width="211" height="200">
<path d="M0 0 C69.63 0 139.26 0 211 0 C211 66 211 132 211 200 C141.37 200 71.74 200 0 200 C0 134 0 68 0 0 Z " fill="#FEFCFD" transform="translate(0,0)"/>
<path d="M0 0 C0.93328125 0.474375 1.8665625 0.94875 2.828125 1.4375 C16.35636198 8.77945776 23.1945941 18.07887361 29 32 C32.8729846 45.67313348 29.45695828 60.22086376 22.72265625 72.2890625 C15.82295592 83.41267909 5.96575238 89.84638001 -6.25390625 94.14453125 C-19.73433325 97.22296036 -33.85813922 95.84442796 -45.6875 88.75 C-56.96038189 81.1396156 -64.69937507 70.89431794 -68.33984375 57.65625 C-70.83680596 43.82692083 -69.63620388 30.66051387 -61.75 18.75 C-52.50188425 6.49771926 -41.88287859 -0.89892896 -26.6640625 -3.58984375 C-17.77370125 -4.58503344 -8.03163042 -4.23372766 0 0 Z " fill="#F00606" transform="translate(125,93)"/>
<path d="M0 0 C26.59541985 0 26.59541985 0 31.7421875 4.53515625 C36.40111866 10.81668068 36.68678375 15.22640425 36 23 C34.81186174 27.27578417 32.37548769 30.11155377 28.625 32.4375 C22.73824769 35.06751292 16.29287647 34.24203371 10 34 C10 39.94 10 45.88 10 52 C6.7 52 3.4 52 0 52 C0 34.84 0 17.68 0 0 Z " fill="#0E0C0E" transform="translate(107,14)"/>
<path d="M0 0 C7.59 0 15.18 0 23 0 C23.06913895 5.40820248 23.12879084 10.81485108 23.16479492 16.22314453 C23.17981496 18.06011166 23.20023709 19.89704334 23.22631836 21.73388672 C23.26300202 24.38518054 23.27979438 27.03599732 23.29296875 29.6875 C23.30845261 30.49928711 23.32393646 31.31107422 23.33988953 32.14746094 C23.34176697 38.61187112 22.23945297 44.16335957 18.125 49.375 C13.55411598 52.8703819 9.24396992 53.55939329 3.57421875 53.44921875 C-0.91895178 52.66512981 -3.90286019 50.24425395 -7 47 C-9.60203471 42.88011171 -9.16058981 38.73739942 -9 34 C-6.03 34 -3.06 34 0 34 C0.12375 35.11375 0.2475 36.2275 0.375 37.375 C0.6465813 41.03103677 0.6465813 41.03103677 3 43 C6.5 43.41666667 6.5 43.41666667 10 43 C12.45378929 39.31931607 12.30646214 37.31946281 12.4140625 32.92578125 C12.43342865 32.2419487 12.4527948 31.55811615 12.4727478 30.8535614 C12.53243997 28.67333375 12.57888631 26.49305298 12.625 24.3125 C12.66318943 22.8326595 12.70224174 21.352841 12.7421875 19.87304688 C12.83813202 16.2488995 12.92220151 12.62458743 13 9 C8.71 9 4.42 9 0 9 C0 6.03 0 3.06 0 0 Z " fill="#121012" transform="translate(33,14)"/>
<path d="M0 0 C14.52 0 29.04 0 44 0 C44 2.97 44 5.94 44 9 C38.39 9 32.78 9 27 9 C27 23.19 27 37.38 27 52 C23.7 52 20.4 52 17 52 C17 37.81 17 23.62 17 9 C11.39 9 5.78 9 0 9 C0 6.03 0 3.06 0 0 Z " fill="#171517" transform="translate(145,14)"/>
<path d="M0 0 C3.3 0 6.6 0 10 0 C10 14.52 10 29.04 10 44 C17.26 44 24.52 44 32 44 C32 46.64 32 49.28 32 52 C21.44 52 10.88 52 0 52 C0 34.84 0 17.68 0 0 Z " fill="#110F11" transform="translate(68,14)"/>
<path d="M0 0 C1.98 0 3.96 0 6 0 C8.23828125 2.38671875 8.23828125 2.38671875 10.3125 5.6875 C11.07749451 6.87280299 11.84314008 8.05768599 12.609375 9.2421875 C12.99802734 9.85803711 13.38667969 10.47388672 13.78710938 11.10839844 C15.7926555 14.23621071 17.93362374 17.26800331 20.0625 20.3125 C21.361875 22.189375 22.66125 24.06625 24 26 C24.33 17.42 24.66 8.84 25 0 C26.98 0 28.96 0 31 0 C31 12.54 31 25.08 31 38 C25 38 25 38 23.11303711 36.29101562 C22.5897583 35.50404297 22.06647949 34.71707031 21.52734375 33.90625 C20.93759766 33.04 20.34785156 32.17375 19.74023438 31.28125 C19.14533203 30.3634375 18.55042969 29.445625 17.9375 28.5 C17.33873047 27.613125 16.73996094 26.72625 16.12304688 25.8125 C12.63038313 20.60984645 9.32286222 15.31657956 6 10 C5.67 19.24 5.34 28.48 5 38 C3.35 38 1.7 38 0 38 C0 25.46 0 12.92 0 0 Z " fill="#FBECEC" transform="translate(73,118)"/>
<path d="M0 0 C6.27 0 12.54 0 19 0 C19 1.32 19 2.64 19 4 C14.38 4.33 9.76 4.66 5 5 C4.67 7.97 4.34 10.94 4 14 C4.65226562 13.95359375 5.30453125 13.9071875 5.9765625 13.859375 C11.86828361 13.61605908 15.41578544 13.8742069 20 18 C22.59036348 21.41457004 22.43108741 24.83282171 22 29 C19.26114877 34.08643801 16.4898792 37.17004027 11 39 C4.91177526 39.58540622 1.95272669 38.23443375 -3 35 C-2.625 33.0625 -2.625 33.0625 -2 31 C-1.34 30.67 -0.68 30.34 0 30 C0.721875 30.495 1.44375 30.99 2.1875 31.5 C5.92001261 33.49067339 7.96397122 33.04637783 12 32 C14.06402685 31.01951062 14.06402685 31.01951062 15 29 C15.66666667 25.5 15.66666667 25.5 15 22 C13.18615941 19.74030772 13.18615941 19.74030772 10 19 C7.35774448 19.09125529 4.8201396 19.37383173 2.20703125 19.7734375 C0 20 0 20 -2 19 C-1.34 12.73 -0.68 6.46 0 0 Z " fill="#FAEAEA" transform="translate(115,118)"/>
<path d="M0 0 C12.3434668 -0.49373867 12.3434668 -0.49373867 15.39453125 1.80078125 C17.72322475 4.99069473 17.47393475 7.14081705 17 11 C14.8 15.6 14.8 15.6 12 17 C9.95944995 17.07065617 7.91665743 17.08421976 5.875 17.0625 C2.966875 17.0315625 2.966875 17.0315625 0 17 C0 11.39 0 5.78 0 0 Z " fill="#F8F7F8" transform="translate(117,23)"/>
<path d="M0 0 C6.27 0 12.54 0 19 0 C19 1.32 19 2.64 19 4 C14.38 4.33 9.76 4.66 5 5 C4.34 8.3 3.68 11.6 3 15 C3.66 15.33 4.32 15.66 5 16 C4.01 17.32 3.02 18.64 2 20 C0.68 19.67 -0.64 19.34 -2 19 C-1.34 12.73 -0.68 6.46 0 0 Z " fill="#FDF5F6" transform="translate(115,118)"/>
</svg>
