<?xml version="1.0" encoding="UTF-8"?>
<svg version="1.1" xmlns="http://www.w3.org/2000/svg" width="203" height="159">
<path d="M0 0 C66.99 0 133.98 0 203 0 C203 52.47 203 104.94 203 159 C136.01 159 69.02 159 0 159 C0 106.53 0 54.06 0 0 Z " fill="#FDFDFD" transform="translate(0,0)"/>
<path d="M0 0 C12.54 0 25.08 0 38 0 C38 4.29 38 8.58 38 13 C36.35 13.33 34.7 13.66 33 14 C33 30.83 33 47.66 33 65 C22.11 65 11.22 65 0 65 C0 60.71 0 56.42 0 52 C6.27 52 12.54 52 19 52 C19 39.46 19 26.92 19 14 C13.06 14 7.12 14 1 14 C0.67 13.67 0.34 13.34 0 13 C0 8.71 0 4.42 0 0 Z " fill="#0D0D0D" transform="translate(36,23)"/>
<path d="M0 0 C12.54 0 25.08 0 38 0 C38 4.29 38 8.58 38 13 C29.75 13 21.5 13 13 13 C13 18.28 13 23.56 13 29 C19.6 29 26.2 29 33 29 C33 32.96 33 36.92 33 41 C26.4 41 19.8 41 13 41 C13 48.92 13 56.84 13 65 C8.71 65 4.42 65 0 65 C0 43.55 0 22.1 0 0 Z " fill="#090909" transform="translate(81,23)"/>
<path d="M0 0 C12.54 0 25.08 0 38 0 C38 4.62 38 9.24 38 14 C34.04 14 30.08 14 26 14 C26 30.83 26 47.66 26 65 C21.38 65 16.76 65 12 65 C12 48.17 12 31.34 12 14 C8.04 14 4.08 14 0 14 C0 9.38 0 4.76 0 0 Z " fill="#101010" transform="translate(126,23)"/>
<path d="M0 0 C7.26 0 14.52 0 22 0 C22 5.61 22 11.22 22 17 C23.98 17 25.96 17 28 17 C28 23.93 28 30.86 28 38 C18.76 38 9.52 38 0 38 C0 25.46 0 12.92 0 0 Z " fill="#151515" transform="translate(36,92)"/>
<path d="M0 0 C0 0.66 0 1.32 0 2 C0.66 2 1.32 2 2 2 C2.33 3.98 2.66 5.96 3 8 C10.59 8 18.18 8 26 8 C26 9.98 26 11.96 26 14 C20.72 14 15.44 14 10 14 C10 19.94 10 25.88 10 32 C15.28 32 20.56 32 26 32 C26 33.98 26 35.96 26 38 C18.41 38 10.82 38 3 38 C2.67 29.09 2.34 20.18 2 11 C1.34 11 0.68 11 0 11 C-0.0825 11.61875 -0.165 12.2375 -0.25 12.875 C-1 15 -1 15 -2.625 16.3125 C-6.00865136 17.29197803 -8.58999914 16.74400019 -12 16 C-15 14 -15 14 -16 11 C-16.48627063 6.67139423 -16.80139263 3.18724834 -14.3125 -0.5 C-9.02906486 -3.92709307 -5.06347674 -3.37565116 0 0 Z " fill="#EBF1EF" transform="translate(138,92)"/>
<path d="M0 0 C3.96 0 7.92 0 12 0 C12 7.92 12 15.84 12 24 C13.65 24 15.3 24 17 24 C17 25.98 17 27.96 17 30 C7.43 30 -2.14 30 -12 30 C-12 22.74 -12 15.48 -12 8 C-6.06 8 -0.12 8 6 8 C6 7.34 6 6.68 6 6 C4.02 6 2.04 6 0 6 C0 4.02 0 2.04 0 0 Z " fill="#171717" transform="translate(79,100)"/>
<path d="M0 0 C6.27 0 12.54 0 19 0 C19 1.98 19 3.96 19 6 C14.71 6 10.42 6 6 6 C6 7.98 6 9.96 6 12 C10.62 12 15.24 12 20 12 C20 17.94 20 23.88 20 30 C13.73 30 7.46 30 1 30 C1 28.02 1 26.04 1 24 C5.62 24 10.24 24 15 24 C15 22.02 15 20.04 15 18 C10.05 18 5.1 18 0 18 C0 12.06 0 6.12 0 0 Z " fill="#141313" transform="translate(99,100)"/>
<path d="M0 0 C6.93 0 13.86 0 21 0 C21 1.98 21 3.96 21 6 C15.72 6 10.44 6 5 6 C5 11.94 5 17.88 5 24 C10.28 24 15.56 24 21 24 C21 25.98 21 27.96 21 30 C14.07 30 7.14 30 0 30 C0 20.1 0 10.2 0 0 Z " fill="#101010" transform="translate(143,100)"/>
<path d="M0 0 C5.61 0 11.22 0 17 0 C17 3.3 17 6.6 17 10 C11.39 10 5.78 10 0 10 C0 6.7 0 3.4 0 0 Z " fill="#FAFAFA" transform="translate(42,114)"/>
<path d="M0 0 C3.96 0 7.92 0 12 0 C12 3.3 12 6.6 12 10 C8.04 10 4.08 10 0 10 C0 6.7 0 3.4 0 0 Z " fill="#F8F8F8" transform="translate(73,114)"/>
<path d="M0 0 C1.98 0 3.96 0 6 0 C6 6.27 6 12.54 6 19 C4.02 19 2.04 19 0 19 C0 12.73 0 6.46 0 0 Z " fill="#222222" transform="translate(128,111)"/>
<path d="M0 0 C3.3 0 6.6 0 10 0 C10 3.3 10 6.6 10 10 C6.7 10 3.4 10 0 10 C0 6.7 0 3.4 0 0 Z " fill="#FBFBFB" transform="translate(42,98)"/>
<path d="M0 0 C0.33 0.99 0.66 1.98 1 3 C1.66 3 2.32 3 3 3 C3 12.9 3 22.8 3 33 C2.34 33 1.68 33 1 33 C0.67 22.11 0.34 11.22 0 0 Z " fill="#BEC0BF" transform="translate(140,97)"/>
<path d="M0 0 C1.09570312 0.00902344 2.19140625 0.01804687 3.3203125 0.02734375 C4.16335937 0.03894531 5.00640625 0.05054687 5.875 0.0625 C5.875 1.3825 5.875 2.7025 5.875 4.0625 C3.07815672 5.96435343 1.77114391 6.05521185 -1.6875 5.8125 C-5.125 5.0625 -5.125 5.0625 -8.125 3.0625 C-8.125 2.4025 -8.125 1.7425 -8.125 1.0625 C-5.36047967 -0.31976016 -3.0788637 -0.03275387 0 0 Z " fill="#C48190" transform="translate(131.125,102.9375)"/>
<path d="M0 0 C2.475 0.495 2.475 0.495 5 1 C5.33 1.99 5.66 2.98 6 4 C6.66 4 7.32 4 8 4 C8 6.64 8 9.28 8 12 C6.125 11.3125 6.125 11.3125 4 10 C3.27840576 8.35636866 2.60648579 6.68949614 2 5 C1.34 4.67 0.68 4.34 0 4 C0 2.68 0 1.36 0 0 Z " fill="#0D914D" transform="translate(132,90)"/>
<path d="M0 0 C-0.33 1.65 -0.66 3.3 -1 5 C-1.66 5 -2.32 5 -3 5 C-3 6.65 -3 8.3 -3 10 C-4.98 10.99 -4.98 10.99 -7 12 C-7.48842105 4.67368421 -7.48842105 4.67368421 -5.1875 1.5 C-3 0 -3 0 0 0 Z " fill="#135785" transform="translate(129,90)"/>
</svg>
