<?xml version="1.0" encoding="UTF-8"?>
<svg version="1.1" xmlns="http://www.w3.org/2000/svg" width="156" height="159">
<path d="M0 0 C51.48 0 102.96 0 156 0 C156 52.47 156 104.94 156 159 C104.52 159 53.04 159 0 159 C0 106.53 0 54.06 0 0 Z " fill="#FCFBFC" transform="translate(0,0)"/>
<path d="M0 0 C9.63648826 5.67482086 17.81177037 12.69193308 20.75 23.75 C22.96165435 35.74163047 21.45138342 46.05150312 14.65625 56.359375 C8.71647153 63.67328132 0.72715416 69.4210371 -8.72900391 70.91455078 C-20.76956108 72.02618161 -30.28544562 70.31245761 -39.75 62.5 C-47.75766717 54.84487163 -52.32233665 45.32769175 -52.8125 34.25 C-52.47960567 22.87284679 -48.00158842 13.59884636 -39.8125 5.8125 C-28.50267133 -3.29053283 -13.50880244 -6.24019519 0 0 Z " fill="#F10606" transform="translate(92.5,73.4375)"/>
<path d="M0 0 C20 0 20 0 24.78515625 3.515625 C27.46341996 6.78810155 27.2795474 10.95043716 27.21875 15.0390625 C26.79946173 18.79768238 24.96231429 21.07332698 22.3125 23.625 C19.17588725 25.49001299 16.86896417 25.29606892 13.25 25.1875 C11.1875 25.125625 9.125 25.06375 7 25 C7 29.29 7 33.58 7 38 C4.69 38 2.38 38 0 38 C0 25.46 0 12.92 0 0 Z " fill="#0F0E0F" transform="translate(78,15)"/>
<path d="M0 0 C5.94 0 11.88 0 18 0 C18.06914407 4.02059946 18.12879137 8.03967009 18.16479492 12.06054688 C18.17981428 13.42617816 18.20023608 14.79176176 18.22631836 16.15722656 C18.26300137 18.12803905 18.27818551 20.09921408 18.29296875 22.0703125 C18.3086792 23.25383301 18.32438965 24.43735352 18.34057617 25.65673828 C17.88720351 30.10726531 16.34384356 33.37618903 13.5 36.8125 C10.16329439 39.45405861 6.29192267 39.39126266 2.22265625 39.3515625 C-1.3874232 38.78054818 -2.87393672 36.83475104 -5 34 C-7.01679759 30.92678462 -7.20257027 28.64626491 -7 25 C-4.36 25 -1.72 25 1 25 C1.66 27.31 2.32 29.62 3 32 C4.66611905 32.042721 6.33382885 32.04063832 8 32 C9.71443219 30.28556781 9.23052967 27.99554759 9.31640625 25.65234375 C9.35830078 24.57275391 9.40019531 23.49316406 9.44335938 22.38085938 C9.48267578 21.24455078 9.52199219 20.10824219 9.5625 18.9375 C9.62727539 17.22723633 9.62727539 17.22723633 9.69335938 15.48242188 C9.79982839 12.65507805 9.90184207 9.82764262 10 7 C6.7 7 3.4 7 0 7 C0 4.69 0 2.38 0 0 Z " fill="#201F20" transform="translate(23,15)"/>
<path d="M0 0 C10.56 0 21.12 0 32 0 C32 2.31 32 4.62 32 7 C28.04 7 24.08 7 20 7 C20.00785522 8.40076782 20.00785522 8.40076782 20.01586914 9.82983398 C20.0328762 13.28312796 20.04543302 16.73637767 20.05493164 20.18969727 C20.05997121 21.68644918 20.06680287 23.18319616 20.07543945 24.67993164 C20.08752159 26.82699807 20.09323191 28.97399962 20.09765625 31.12109375 C20.10551147 33.06133423 20.10551147 33.06133423 20.11352539 35.04077148 C20 38 20 38 19 39 C16.69 39 14.38 39 12 39 C12 28.44 12 17.88 12 7 C8.04 7 4.08 7 0 7 C0 4.69 0 2.38 0 0 Z " fill="#252425" transform="translate(107,15)"/>
<path d="M0 0 C5 0 5 0 6.76098633 1.74414062 C7.27943115 2.54013672 7.79787598 3.33613281 8.33203125 4.15625 C8.90244141 5.01347656 9.47285156 5.87070313 10.06054688 6.75390625 C10.63869141 7.66011719 11.21683594 8.56632812 11.8125 9.5 C12.40998047 10.40621094 13.00746094 11.31242187 13.62304688 12.24609375 C15.09751507 14.4872854 16.55079948 16.74238747 18 19 C18.33 12.73 18.66 6.46 19 0 C20.32 0 21.64 0 23 0 C23 9.24 23 18.48 23 28 C17.70937046 26.94187409 17.06884183 26.37159605 14.15234375 22.1796875 C13.73082031 21.54289062 13.30929688 20.90609375 12.875 20.25 C12.44574219 19.62867187 12.01648438 19.00734375 11.57421875 18.3671875 C9.24701516 14.97305057 7.12193254 11.53655423 5 8 C4.67 14.93 4.34 21.86 4 29 C2.68 29 1.36 29 0 29 C0 19.43 0 9.86 0 0 Z " fill="#FCDBDC" transform="translate(52,92)"/>
<path d="M0 0 C0 5.61 0 11.22 0 17 C1.32 17 2.64 17 4 17 C4 18.32 4 19.64 4 21 C2.68 21 1.36 21 0 21 C0 23.64 0 26.28 0 29 C-1.32 29 -2.64 29 -4 29 C-4 26.36 -4 23.72 -4 21 C-8.62 21 -13.24 21 -18 21 C-16.84062713 15.20313566 -14.71748516 12.30668559 -11.25 7.6875 C-10.46109375 6.57665039 -10.46109375 6.57665039 -9.65625 5.44335938 C-9.13546875 4.74404297 -8.6146875 4.04472656 -8.078125 3.32421875 C-7.60793945 2.68572998 -7.13775391 2.04724121 -6.65332031 1.3894043 C-5 0 -5 0 0 0 Z " fill="#FBD2D3" transform="translate(98,92)"/>
<path d="M0 0 C1.98 0 3.96 0 6 0 C6 10.56 6 21.12 6 32 C11.61 32 17.22 32 23 32 C23 33.65 23 35.3 23 37 C15.41 37 7.82 37 0 37 C0 24.79 0 12.58 0 0 Z " fill="#040304" transform="translate(50,16)"/>
<path d="M0 0 C0.66 0 1.32 0 2 0 C2 5.28 2 10.56 2 16 C3.65 16 5.3 16 7 16 C7 17.32 7 18.64 7 20 C5.68 20 4.36 20 3 20 C3 22.64 3 25.28 3 28 C1.68 28 0.36 28 -1 28 C-1 25.36 -1 22.72 -1 20 C-5.62 20 -10.24 20 -15 20 C-14.67 18.35 -14.34 16.7 -14 15 C-13.01 15 -12.02 15 -11 15 C-11 15.66 -11 16.32 -11 17 C-7.7 16.67 -4.4 16.34 -1 16 C-0.67 11.71 -0.34 7.42 0 3 C-0.66 2.67 -1.32 2.34 -2 2 C-1.34 1.34 -0.68 0.68 0 0 Z " fill="#FCE1E1" transform="translate(95,93)"/>
<path d="M0 0 C1.60875 -0.04125 3.2175 -0.0825 4.875 -0.125 C5.77992187 -0.14820312 6.68484375 -0.17140625 7.6171875 -0.1953125 C10 0 10 0 12 2 C12.5647482 8.21223022 12.5647482 8.21223022 10.7734375 10.7109375 C8.47695154 12.38018941 7.12026158 12.30957659 4.3125 12.1875 C2.889375 12.125625 1.46625 12.06375 0 12 C0 8.04 0 4.08 0 0 Z " fill="#F7F6F7" transform="translate(86,22)"/>
<path d="M0 0 C1.65 0 3.3 0 5 0 C7 3 7 3 7 7 C6.01 7 5.02 7 4 7 C4 14.26 4 21.52 4 29 C2.68 29 1.36 29 0 29 C0 19.43 0 9.86 0 0 Z " fill="#FCDDDE" transform="translate(52,92)"/>
<path d="M0 0 C5.94 0 11.88 0 18 0 C18.66 0.66 19.32 1.32 20 2 C14.06 2 8.12 2 2 2 C2 13.88 2 25.76 2 38 C1.34 38 0.68 38 0 38 C0 25.46 0 12.92 0 0 Z " fill="#414041" transform="translate(78,15)"/>
<path d="M0 0 C0.66 0 1.32 0 2 0 C2 8.91 2 17.82 2 27 C0.68 26.67 -0.64 26.34 -2 26 C-3.25 23.4375 -3.25 23.4375 -4 21 C-2.68 21 -1.36 21 0 21 C0 14.07 0 7.14 0 0 Z " fill="#FEF9FA" transform="translate(72,93)"/>
<path d="M0 0 C0.33 0 0.66 0 1 0 C1 4.29 1 8.58 1 13 C-1.97 13 -4.94 13 -8 13 C-6.42903279 7.97290493 -3.38006951 3.97133531 0 0 Z " fill="#F32E2E" transform="translate(93,97)"/>
<path d="M0 0 C3.63 0 7.26 0 11 0 C11 1.65 11 3.3 11 5 C7.37 5 3.74 5 0 5 C0 3.35 0 1.7 0 0 Z " fill="#EFEFEF" transform="translate(144,154)"/>
<path d="M0 0 C3.63 0 7.26 0 11 0 C11 1.65 11 3.3 11 5 C7.37 5 3.74 5 0 5 C0 3.35 0 1.7 0 0 Z " fill="#EFEFEF" transform="translate(123,154)"/>
<path d="M0 0 C3.63 0 7.26 0 11 0 C11 1.65 11 3.3 11 5 C7.37 5 3.74 5 0 5 C0 3.35 0 1.7 0 0 Z " fill="#EFEFEF" transform="translate(102,154)"/>
<path d="M0 0 C3.63 0 7.26 0 11 0 C11 1.65 11 3.3 11 5 C7.37 5 3.74 5 0 5 C0 3.35 0 1.7 0 0 Z " fill="#EFEFEF" transform="translate(81,154)"/>
<path d="M0 0 C3.63 0 7.26 0 11 0 C11 1.65 11 3.3 11 5 C7.37 5 3.74 5 0 5 C0 3.35 0 1.7 0 0 Z " fill="#EFEFEF" transform="translate(60,154)"/>
<path d="M0 0 C3.63 0 7.26 0 11 0 C11 1.65 11 3.3 11 5 C7.37 5 3.74 5 0 5 C0 3.35 0 1.7 0 0 Z " fill="#EFEFEF" transform="translate(39,154)"/>
<path d="M0 0 C3.63 0 7.26 0 11 0 C11 1.65 11 3.3 11 5 C7.37 5 3.74 5 0 5 C0 3.35 0 1.7 0 0 Z " fill="#EFEFEF" transform="translate(18,154)"/>
<path d="M0 0 C4 4 4 4 5 7 C4.34 7 3.68 7 3 7 C2.67 11.62 2.34 16.24 2 21 C1.34 21 0.68 21 0 21 C0 14.07 0 7.14 0 0 Z " fill="#F43939" transform="translate(56,99)"/>
<path d="M0 0 C2.64 0 5.28 0 8 0 C8 1.65 8 3.3 8 5 C5.36 5 2.72 5 0 5 C0 3.35 0 1.7 0 0 Z " fill="#EFEFEF" transform="translate(0,154)"/>
<path d="M0 0 C0.66 0.33 1.32 0.66 2 1 C0.56877218 2.48523642 -0.87020889 3.96300462 -2.3125 5.4375 C-3.11300781 6.26121094 -3.91351563 7.08492188 -4.73828125 7.93359375 C-7 10 -7 10 -10 11 C-8.55218207 7.55571735 -6.72305391 5.63869038 -3.875 3.25 C-3.15054688 2.63640625 -2.42609375 2.0228125 -1.6796875 1.390625 C-0.84824219 0.70226562 -0.84824219 0.70226562 0 0 Z " fill="#F33435" transform="translate(57,76)"/>
</svg>
