<?xml version="1.0" encoding="UTF-8"?>
<svg version="1.1" xmlns="http://www.w3.org/2000/svg" width="561" height="244">
<path d="M0 0 C1.39120471 0.00015906 2.78241534 0.00585033 4.17358398 0.01586914 C4.90463852 0.01728409 5.63569305 0.01869904 6.38890076 0.02015686 C8.73253406 0.02577131 11.07607313 0.03832617 13.41967773 0.05102539 C15.00496282 0.05603853 16.59024939 0.06060176 18.17553711 0.06469727 C22.06945383 0.07574542 25.96329979 0.09301967 29.85717773 0.11352539 C32.925155 6.03318945 35.51104347 12.02109372 37.93139648 18.23071289 C38.30069778 19.1690799 38.66999908 20.1074469 39.05049133 21.07424927 C40.21868355 24.04432806 41.38188542 27.01632889 42.54467773 29.98852539 C43.71914848 32.98175622 44.89465058 35.97457821 46.07099915 38.96707153 C46.80015937 40.82290259 47.52805455 42.67923129 48.25456238 44.53610229 C48.74561211 45.7884819 48.74561211 45.7884819 49.24658203 47.06616211 C49.53429977 47.80148163 49.82201752 48.53680115 50.11845398 49.29440308 C50.85105436 51.166133 50.85105436 51.166133 51.85717773 53.11352539 C52.17428711 52.3980957 52.49139648 51.68266602 52.81811523 50.94555664 C62.60453041 30.04804578 79.32996564 13.74995852 100.85717773 5.11352539 C124.35775633 -2.93072498 151.23472518 -2.41120601 173.85717773 8.11352539 C184.48575975 13.43446758 194.88934466 20.57035362 200.85717773 31.11352539 C201.90722077 37.27682145 198.75265156 41.27890885 195.54467773 46.23852539 C195.04516602 47.03645508 194.5456543 47.83438477 194.03100586 48.65649414 C191.76457693 52.2527615 189.4388098 55.73415813 186.85717773 59.11352539 C182.98694607 58.58637315 180.94856753 57.71634616 178.10717773 55.05102539 C177.41624023 54.42196289 176.72530273 53.79290039 176.01342773 53.14477539 C174.58692784 51.80097114 173.17003185 50.44689133 171.76342773 49.08227539 C160.20654346 38.19535542 145.93170792 33.37492452 130.11499023 33.83227539 C116.46178792 35.01096912 104.30911542 39.99935003 94.85717773 50.11352539 C80.2259197 67.95205293 76.27524351 91.08131823 78.36499023 113.55883789 C80.94393882 132.18457766 87.750142 148.79088636 102.32202148 161.21508789 C104.72887147 163.01744396 107.04204286 164.40634997 109.73217773 165.73852539 C110.53397461 166.14329102 111.33577148 166.54805664 112.16186523 166.96508789 C126.14578727 172.92345467 141.55577774 172.17264999 155.52514648 166.66821289 C163.61241797 162.87592637 170.22006759 158.04212142 176.85717773 152.11352539 C177.66799805 151.41098633 178.47881836 150.70844727 179.31420898 149.98461914 C181.17318068 148.37307625 183.02042855 146.7502847 184.85717773 145.11352539 C189.52958754 148.45343314 192.70179494 152.43966847 196.10717773 156.98852539 C196.64858398 157.68333008 197.18999023 158.37813477 197.74780273 159.09399414 C203.01895338 166.09144662 203.01895338 166.09144662 202.85717773 171.11352539 C192.59717406 188.25962317 170.84639869 199.04609199 152.18530273 203.79321289 C137.1804845 206.88742682 121.90475233 205.72478651 107.15405273 202.08618164 C98.73288599 200.07542686 90.41962088 199.98028453 81.79467773 200.05102539 C80.73829102 200.05553711 79.6819043 200.06004883 78.59350586 200.06469727 C76.01466865 200.07636621 73.4359548 200.09273654 70.85717773 200.11352539 C66.21154021 192.85537515 63.93813669 184.86920306 61.30053711 176.71704102 C59.19829352 170.41031026 57.10149893 164.33469231 52.85717773 159.11352539 C50.54897266 157.95942285 49.24933497 157.99249569 46.68286133 158 C45.82212006 158.00007553 44.96137878 158.00015106 44.07455444 158.00022888 C42.67917953 158.00797081 42.67917953 158.00797081 41.25561523 158.01586914 C40.3040152 158.01728409 39.35241516 158.01869904 38.37197876 158.02015686 C35.32534676 158.02576527 32.27878761 158.0383192 29.23217773 158.05102539 C27.16967879 158.05603931 25.1071787 158.0606024 23.04467773 158.06469727 C17.98214956 158.07573744 12.91967601 158.09300772 7.85717773 158.11352539 C7.37450439 159.41894287 7.37450439 159.41894287 6.88208008 160.75073242 C6.44847168 161.90428223 6.01486328 163.05783203 5.56811523 164.24633789 C5.14320801 165.38474121 4.71830078 166.52314453 4.28051758 167.69604492 C-1.53342781 181.65549732 -11.32794211 190.92551767 -24.83813477 197.40649414 C-42.28627184 204.45187894 -65.12855078 201.57714683 -83.61607933 201.7137785 C-89.13416002 201.75494945 -94.65049284 201.81592847 -100.16772461 201.92285156 C-105.53861534 202.02651572 -110.90794147 202.08115478 -116.27977371 202.10123634 C-118.31727503 202.11714921 -120.35471986 202.15033404 -122.39164352 202.20139122 C-138.27200571 202.58099018 -138.27200571 202.58099018 -142.86538696 198.97795105 C-144.67921404 196.41479434 -145.90056759 193.98752377 -147.14282227 191.11352539 C-148.20290142 189.57615158 -149.29505878 188.05989293 -150.43188477 186.57836914 C-150.97409668 185.84078369 -151.51630859 185.10319824 -152.07495117 184.34326172 C-152.63359863 183.58682373 -153.19224609 182.83038574 -153.76782227 182.05102539 C-154.36900879 181.23593506 -154.97019531 180.42084473 -155.58959961 179.58105469 C-160.12777482 173.44602615 -164.73775494 167.3691323 -169.38745117 161.31835938 C-173.00629728 156.60814141 -176.58723537 151.87165129 -180.14282227 147.11352539 C-184.274474 141.58626627 -188.44352739 136.0895655 -192.64282227 130.61352539 C-196.84211943 125.1374823 -201.01094892 119.64062097 -205.14282227 114.11352539 C-210.25589332 107.27625972 -215.42962302 100.48734982 -220.62329102 93.71118164 C-223.2156673 90.32803734 -225.80016345 86.93899604 -228.38110352 83.54711914 C-229.09943359 82.60312256 -229.81776367 81.65912598 -230.55786133 80.68652344 C-231.96001538 78.84328705 -233.361728 76.99971476 -234.76293945 75.15576172 C-239.65339732 67.70864296 -239.65339732 67.70864296 -246.14282227 62.11352539 C-246.13029419 62.91323257 -246.11776611 63.71293976 -246.1048584 64.53688049 C-245.55212153 100.07983532 -245.0377156 135.62193191 -245.0194397 171.16981125 C-245.01781888 173.24286109 -245.01426092 175.31590004 -245.01025391 177.38894653 C-245.0034154 181.21642294 -245.00578327 185.04385662 -245.01000977 188.87133789 C-245.00802582 190.00624161 -245.00604187 191.14114532 -245.0039978 192.31044006 C-245.00710968 193.33229904 -245.01022156 194.35415802 -245.01342773 195.40698242 C-245.01422333 196.29773468 -245.01501892 197.18848694 -245.01583862 198.10623169 C-245.14282227 200.11352539 -245.14282227 200.11352539 -246.14282227 201.11352539 C-248.6520638 201.21439751 -251.1331861 201.25324571 -253.64282227 201.24633789 C-254.39370117 201.24729462 -255.14458008 201.24825134 -255.91821289 201.24923706 C-257.50870853 201.24991877 -259.09920694 201.24806511 -260.68969727 201.24389648 C-263.13246881 201.23854806 -265.57505648 201.24384173 -268.01782227 201.25024414 C-269.55948934 201.24958336 -271.1011563 201.24830219 -272.64282227 201.24633789 C-273.37823242 201.24836212 -274.11364258 201.25038635 -274.87133789 201.25247192 C-280.02787066 201.228477 -280.02787066 201.228477 -281.14282227 200.11352539 C-281.42359601 196.52103715 -281.33238338 192.90281801 -281.33032227 189.30102539 C-281.3309668 188.10123047 -281.33161133 186.90143555 -281.33227539 185.6652832 C-281.28511446 172.55393137 -280.6851615 159.46168386 -280.14282227 146.36352539 C-279.34586557 126.92375653 -278.79400945 107.57191427 -279.14282227 88.11352539 C-279.15720337 87.29682373 -279.17158447 86.48012207 -279.18640137 85.63867188 C-279.44079953 71.46205483 -279.77677333 57.28765158 -280.14282227 43.11352539 C-280.16687134 42.18229858 -280.19092041 41.25107178 -280.21569824 40.29162598 C-280.51121602 28.89854654 -280.82034841 17.50587331 -281.14282227 6.11352539 C-277.37236615 4.22829733 -272.62847173 4.68377704 -268.44995117 4.51464844 C-264.62419514 4.34721019 -260.89595529 4.12974728 -257.11938477 3.47680664 C-248.51151358 2.16041853 -248.51151358 2.16041853 -244.99438477 4.60961914 C-243.23882729 6.74665851 -241.74886215 8.94367264 -240.30395508 11.29956055 C-238.45352087 14.19037766 -236.371598 16.90282673 -234.31518555 19.64916992 C-232.47631661 22.10649029 -230.65857435 24.57820169 -228.84594727 27.05493164 C-228.23041992 27.89556152 -227.61489258 28.73619141 -226.98071289 29.60229492 C-226.37420898 30.43100098 -225.76770508 31.25970703 -225.14282227 32.11352539 C-217.23373321 42.91656165 -209.24173495 53.64476642 -201.10424805 64.27709961 C-196.72236848 70.01212896 -192.40763441 75.79101327 -188.14282227 81.61352539 C-182.58041475 89.20525643 -176.91016958 96.70840186 -171.19165039 104.18310547 C-166.46883947 110.35974968 -161.7952764 116.57126016 -157.14282227 122.80102539 C-149.60958929 133.34948839 -149.60958929 133.34948839 -141.14282227 143.11352539 C-140.20621551 133.58020666 -140.04593755 124.07457388 -140.04907227 114.50024414 C-140.0494751 113.19201187 -140.04987793 111.8837796 -140.05029297 110.53590393 C-140.08261118 95.86465333 -140.60628295 81.21133196 -141.14282227 66.55102539 C-141.72484071 50.62657106 -142.24208451 34.70908487 -142.33032227 18.77368164 C-142.34329346 17.52864365 -142.35626465 16.28360565 -142.36962891 15.00083923 C-142.3708374 13.86119217 -142.3720459 12.7215451 -142.37329102 11.54736328 C-142.3773999 10.54298721 -142.38150879 9.53861115 -142.38574219 8.50379944 C-142.14282227 6.11352539 -142.14282227 6.11352539 -140.14282227 4.11352539 C-137.35491943 3.86628723 -137.35491943 3.86628723 -133.74731445 3.87060547 C-133.08985733 3.86870712 -132.43240021 3.86680878 -131.75502014 3.86485291 C-129.56646003 3.861131 -127.37822835 3.87189112 -125.18969727 3.88305664 C-123.65342243 3.88425058 -122.11714686 3.88470115 -120.58087158 3.88444519 C-117.34252411 3.88601385 -114.10428655 3.89431569 -110.8659668 3.90771484 C-106.78247727 3.9244238 -102.69911051 3.92844086 -98.61559105 3.92790794 C-70.43099301 3.92873721 -70.43099301 3.92873721 -56.35375977 4.54711914 C-55.51367371 4.58352005 -54.67358765 4.61992096 -53.80804443 4.65742493 C-38.5370224 5.44896279 -24.87294696 9.54517223 -12.14282227 18.11352539 C-9.59109654 13.101207 -7.19907528 8.06490191 -4.97485352 2.89868164 C-3.58832231 -0.07617639 -3.55083426 0.12826365 0 0 Z M-105.14282227 32.11352539 C-105.39348068 35.22354646 -105.57398509 38.31007116 -105.70532227 41.42602539 C-105.74778076 42.3826709 -105.79023926 43.33931641 -105.83398438 44.32495117 C-106.33229073 56.91595958 -106.23282877 69.51538482 -106.14282227 82.11352539 C-89.39184709 88.72575243 -62.19913369 87.25221557 -45.58032227 80.86352539 C-39.02450039 77.79939125 -33.85301234 74.7846116 -31.20532227 67.80102539 C-28.86277582 59.03111715 -29.77200987 51.14444898 -34.14282227 43.11352539 C-41.40163527 33.93642143 -51.16118991 31.46508576 -62.30932617 30.13354492 C-85.00536872 26.85748814 -85.00536872 26.85748814 -105.14282227 32.11352539 Z M11.85717773 45.11352539 C7.91055253 53.69418018 4.51705587 62.48295284 1.09277344 71.28149414 C-1.05887958 76.80705695 -3.21444792 82.32748901 -5.48657227 87.80493164 C-5.82390381 88.63001221 -6.16123535 89.45509277 -6.50878906 90.30517578 C-7.1229502 91.8029559 -7.74876743 93.29602924 -8.38818359 94.78320312 C-9.94192686 98.52974301 -9.94192686 98.52974301 -9.45141602 102.44165039 C-8.06615971 104.28093183 -8.06615971 104.28093183 -5.89282227 106.36352539 C-3.77301177 108.48333588 -1.92030516 110.51580038 -0.08032227 112.86352539 C0.3850293 113.45649414 0.85038086 114.04946289 1.32983398 114.66040039 C3.58912871 118.28913974 5.19051094 122.18438873 6.85717773 126.11352539 C11.37788795 126.20104038 15.89837843 126.25409149 20.41967773 126.30102539 C21.69649414 126.32616211 22.97331055 126.35129883 24.28881836 126.37719727 C30.89798927 126.4286973 36.05544183 126.43752746 41.85717773 123.11352539 C41.50323612 114.09307065 38.22648621 106.19213284 35.04467773 97.86352539 C34.46121777 96.31594566 33.87805088 94.76825541 33.29516602 93.22045898 C29.42615855 82.99857304 25.39937266 72.84234611 21.23217773 62.73852539 C20.73613037 61.53421875 20.24008301 60.32991211 19.72900391 59.08911133 C16.72545666 51.88191825 16.72545666 51.88191825 12.85717773 45.11352539 C12.52717773 45.11352539 12.19717773 45.11352539 11.85717773 45.11352539 Z M-107.14282227 116.11352539 C-107.43822864 118.4854666 -107.43822864 118.4854666 -107.37329102 121.26586914 C-107.37200195 122.34054443 -107.37071289 123.41521973 -107.36938477 124.52246094 C-107.35649414 125.68688721 -107.34360352 126.85131348 -107.33032227 128.05102539 C-107.32387695 129.24058838 -107.31743164 130.43015137 -107.31079102 131.65576172 C-107.20312653 144.48381646 -106.71663344 157.29891777 -106.14282227 170.11352539 C-101.29116134 171.67927638 -97.26478506 172.3546095 -92.11547852 172.30883789 C-90.82963867 172.30239258 -89.54379883 172.29594727 -88.21899414 172.28930664 C-86.88110073 172.2726014 -85.5432101 172.25567158 -84.20532227 172.23852539 C-82.84009443 172.22847861 -81.47485947 172.21935575 -80.10961914 172.21118164 C-76.78717027 172.18770144 -73.46508905 172.15485898 -70.14282227 172.11352539 C-65.51684789 160.33023208 -61.00915818 148.50861827 -56.63330078 136.63012695 C-55.68491227 134.05817515 -54.73128972 131.48819855 -53.77758789 128.91821289 C-53.17115298 127.27509999 -52.5650209 125.63187529 -51.95922852 123.98852539 C-51.67495499 123.22411133 -51.39068146 122.45969727 -51.09779358 121.67211914 C-49.65251118 117.99048699 -49.65251118 117.99048699 -49.14282227 114.11352539 C-57.3044591 111.91875751 -65.38045493 111.80532344 -73.7644043 111.8527832 C-76.00670622 111.8634724 -78.24820134 111.85285321 -80.49047852 111.84008789 C-94.84551585 111.0605872 -94.84551585 111.0605872 -107.14282227 116.11352539 Z " fill="#F90101" transform="translate(319.142822265625,10.886474609375)"/>
<path d="M0 0 C11.56662775 10.0609129 11.56662775 10.0609129 12.65234375 16.43359375 C11.99383842 21.36379453 9.55972182 24.79537726 6.890625 28.921875 C6.39111328 29.71980469 5.89160156 30.51773438 5.37695312 31.33984375 C3.11052419 34.93611111 0.78475706 38.41750774 -1.796875 41.796875 C-5.66710666 41.26972276 -7.7054852 40.39969577 -10.546875 37.734375 C-11.2378125 37.1053125 -11.92875 36.47625 -12.640625 35.828125 C-14.06712489 34.48432075 -15.48402088 33.13024094 -16.890625 31.765625 C-28.44750928 20.87870503 -42.72234481 16.05827413 -58.5390625 16.515625 C-72.19226481 17.69431872 -84.34493731 22.68269964 -93.796875 32.796875 C-108.42813304 50.63540254 -112.37880923 73.76466784 -110.2890625 96.2421875 C-107.71011392 114.86792727 -100.90391074 131.47423597 -86.33203125 143.8984375 C-83.92518127 145.70079357 -81.61200988 147.08969958 -78.921875 148.421875 C-78.12007813 148.82664063 -77.31828125 149.23140625 -76.4921875 149.6484375 C-62.50826547 155.60680428 -47.098275 154.8559996 -33.12890625 149.3515625 C-25.04163477 145.55927598 -18.43398514 140.72547103 -11.796875 134.796875 C-10.58064453 133.74306641 -10.58064453 133.74306641 -9.33984375 132.66796875 C-7.48087205 131.05642586 -5.63362419 129.43363431 -3.796875 127.796875 C0.87553481 131.13678275 4.04774221 135.12301808 7.453125 139.671875 C7.99453125 140.36667969 8.5359375 141.06148437 9.09375 141.77734375 C14.36490065 148.77479623 14.36490065 148.77479623 14.203125 153.796875 C3.94312133 170.94297278 -17.80765404 181.7294416 -36.46875 186.4765625 C-59.86044509 191.30027363 -84.49659385 187.02055572 -104.84765625 174.7734375 C-114.30925778 168.43228469 -124.58307361 159.06103573 -129.796875 148.796875 C-129.796875 147.476875 -129.796875 146.156875 -129.796875 144.796875 C-130.786875 144.466875 -131.776875 144.136875 -132.796875 143.796875 C-143.5302053 127.3407975 -147.20709778 106.01787062 -147.109375 86.734375 C-147.10373535 85.55770264 -147.0980957 84.38103027 -147.09228516 83.16870117 C-146.86941336 66.97739585 -144.35788818 52.61331395 -137.796875 37.796875 C-137.2709375 36.59289062 -136.745 35.38890625 -136.203125 34.1484375 C-126.33028378 13.0522249 -109.52235777 -3.4871483 -87.796875 -12.203125 C-58.93719533 -22.0817962 -24.4218368 -19.23731279 0 0 Z " fill="#010000" transform="translate(507.796875,28.203125)"/>
<path d="M0 0 C5.42971647 1.04784002 7.20347043 4.50129711 10.28857422 8.88964844 C11.72731908 10.92010401 13.2061272 12.91739961 14.69140625 14.9140625 C18.33806506 19.8218077 21.9514678 24.75350993 25.5625 29.6875 C33.47158906 40.49053626 41.46358731 51.21874103 49.60107422 61.85107422 C53.98295378 67.58610356 58.29768785 73.36498788 62.5625 79.1875 C68.12490751 86.77923104 73.79515269 94.28237647 79.51367188 101.75708008 C84.23648366 107.93372541 88.90995052 114.1453052 93.5625 120.375 C101.56772665 131.44771603 101.56772665 131.44771603 110.5625 141.6875 C110.71362305 144.64233398 110.71362305 144.64233398 110.57421875 148.43359375 C110.55188171 149.11277863 110.52954468 149.7919635 110.50653076 150.49172974 C110.43108632 152.70330896 110.34081471 154.91400313 110.25 157.125 C110.19531239 158.63205367 110.14135785 160.13913413 110.08813477 161.64624023 C109.70033396 172.33233088 109.21653302 183.01423767 108.5625 193.6875 C104.09679379 189.52172928 100.62667711 184.88253374 97.0625 179.9375 C95.8163854 178.22693049 94.5689617 176.51731397 93.3203125 174.80859375 C92.69286133 173.94991699 92.06541016 173.09124023 91.41894531 172.20654297 C88.63907504 168.4344886 85.79435634 164.71391325 82.9375 161 C78.77751914 155.58801043 74.6485746 150.15553044 70.5625 144.6875 C66.43084827 139.16024088 62.26179488 133.66354011 58.0625 128.1875 C53.86320284 122.71145691 49.69437335 117.21459558 45.5625 111.6875 C40.44942895 104.85023433 35.27569925 98.06132443 30.08203125 91.28515625 C27.48965497 87.90201195 24.90515882 84.51297065 22.32421875 81.12109375 C21.60588867 80.17709717 20.88755859 79.23310059 20.14746094 78.26049805 C18.74530689 76.41726166 17.34359427 74.57368937 15.94238281 72.72973633 C11.05192495 65.28261757 11.05192495 65.28261757 4.5625 59.6875 C4.57502808 60.48720718 4.58755615 61.28691437 4.60046387 62.1108551 C5.15320074 97.65380993 5.66760666 133.19590652 5.68588257 168.74378586 C5.68750339 170.8168357 5.69106134 172.88987465 5.69506836 174.96292114 C5.70190686 178.79039755 5.699539 182.61783123 5.6953125 186.4453125 C5.69729645 187.58021622 5.6992804 188.71511993 5.70132446 189.88441467 C5.69821259 190.90627365 5.69510071 191.92813263 5.69189453 192.98095703 C5.69109894 193.87170929 5.69030334 194.76246155 5.68948364 195.6802063 C5.5625 197.6875 5.5625 197.6875 4.5625 198.6875 C2.05325847 198.78837212 -0.42786384 198.82722032 -2.9375 198.8203125 C-3.68837891 198.82126923 -4.43925781 198.82222595 -5.21289062 198.82321167 C-6.80338627 198.82389338 -8.39388467 198.82203972 -9.984375 198.81787109 C-12.42714655 198.81252267 -14.86973421 198.81781634 -17.3125 198.82421875 C-18.85416707 198.82355797 -20.39583403 198.8222768 -21.9375 198.8203125 C-22.67291016 198.82233673 -23.40832031 198.82436096 -24.16601562 198.82644653 C-29.32254839 198.80245161 -29.32254839 198.80245161 -30.4375 197.6875 C-30.71827374 194.09501176 -30.62706111 190.47679262 -30.625 186.875 C-30.62564453 185.67520508 -30.62628906 184.47541016 -30.62695312 183.23925781 C-30.57979219 170.12790598 -29.97983923 157.03565847 -29.4375 143.9375 C-28.6405433 124.49773114 -28.08868718 105.14588888 -28.4375 85.6875 C-28.4518811 84.87079834 -28.46626221 84.05409668 -28.4810791 83.21264648 C-28.73547727 69.03602944 -29.07145106 54.86162619 -29.4375 40.6875 C-29.46154907 39.75627319 -29.48559814 38.82504639 -29.51037598 37.86560059 C-29.80589375 26.47252115 -30.11502615 15.07984791 -30.4375 3.6875 C-27.12437107 2.03093553 -23.39985869 2.34429584 -19.75 2.1875 C-13.05826276 1.89299812 -6.58490376 1.31698075 0 0 Z " fill="#F90101" transform="translate(68.4375,13.3125)"/>
<path d="M0 0 C1.78576447 0.00213753 1.78576447 0.00213753 3.60760498 0.00431824 C4.2650621 0.00241989 4.92251923 0.00052155 5.59989929 -0.00143433 C7.7884594 -0.00515623 9.97669108 0.00560389 12.16522217 0.01676941 C13.701497 0.01796334 15.23777258 0.01841392 16.77404785 0.01815796 C20.01239533 0.01972661 23.25063288 0.02802846 26.48895264 0.04142761 C30.57244216 0.05813657 34.65580892 0.06215363 38.73932838 0.06162071 C66.92392642 0.06244998 66.92392642 0.06244998 81.00115967 0.68083191 C81.84124573 0.71723282 82.68133179 0.75363373 83.546875 0.7911377 C99.32212588 1.60881109 113.40677431 5.83726606 126.21209717 15.24723816 C124.75729253 19.75713253 123.10698704 24.1658967 121.33709717 28.55973816 C121.07026123 29.22561951 120.80342529 29.89150085 120.52850342 30.57756042 C119.15683821 33.9798037 117.74356495 37.35154357 116.21209717 40.68473816 C113.73468408 46.13504694 111.73695101 51.77102219 109.65350342 57.38005066 C107.22819029 63.90548599 104.66352124 70.31569978 101.71209717 76.62223816 C99.46369453 81.49147823 97.75186619 86.43113604 96.11053467 91.53239441 C95.00597908 94.87007326 93.66198009 98.04541337 92.21209717 101.24723816 C91.48222848 102.89276029 90.7530876 104.53860539 90.02459717 106.18473816 C89.42072323 107.53903539 88.81660557 108.89322401 88.21209717 110.24723816 C86.91014404 110.08610535 85.60819092 109.92497253 84.26678467 109.75895691 C77.38243528 109.07439911 70.50112037 109.06118313 63.59051514 109.06193542 C61.34829705 109.05974908 59.10657249 109.04153005 56.86444092 109.02262878 C48.51748662 108.99026196 40.36878768 109.21416943 32.21209717 111.24723816 C30.53158338 112.92775194 31.08200894 114.99758092 31.07928467 117.30192566 C31.07735107 118.37982361 31.07541748 119.45772156 31.07342529 120.56828308 C31.07793701 121.74108826 31.08244873 122.91389343 31.08709717 124.12223816 C31.08903076 125.31631287 31.09096436 126.51038757 31.09295654 127.74064636 C31.15338341 140.58722976 31.63748305 153.41469896 32.21209717 166.24723816 C36.47451686 167.04044341 40.59133403 167.4245531 44.92303467 167.56364441 C46.16697998 167.60553894 47.41092529 167.64743347 48.69256592 167.69059753 C49.97776123 167.72991394 51.26295654 167.76923035 52.58709717 167.80973816 C53.89549561 167.85292175 55.20389404 167.89610535 56.55194092 167.94059753 C59.77189514 168.04636245 62.99192247 168.14845395 66.21209717 168.24723816 C65.62137561 173.83694093 64.16849722 178.67922009 62.21209717 183.93473816 C61.66881892 185.41722148 61.12709849 186.90027681 60.58709717 188.38395691 C60.34733154 189.03066345 60.10756592 189.67737 59.86053467 190.34367371 C59.19656019 192.2928488 58.68385081 194.24367595 58.21209717 196.24723816 C43.36574102 196.87985714 28.52403974 197.36070622 13.66375732 197.42448425 C12.23811834 197.43131795 10.81249162 197.44156969 9.38690186 197.45524597 C7.38729224 197.47300781 5.38756592 197.47570922 3.38787842 197.47770691 C2.24230469 197.4818158 1.09673096 197.48592468 -0.08355713 197.49015808 C-2.78790283 197.24723816 -2.78790283 197.24723816 -4.78790283 195.24723816 C-5.03082275 193.3815155 -5.03082275 193.3815155 -5.01837158 191.08317566 C-5.01716309 190.22103455 -5.01595459 189.35889343 -5.01470947 188.47062683 C-5.00173828 187.53065857 -4.98876709 186.59069031 -4.97540283 185.62223816 C-4.96823242 184.64166443 -4.96106201 183.6610907 -4.95367432 182.65080261 C-4.8236428 170.50200654 -4.22890071 158.37056668 -3.64239502 146.23698425 C-2.3120539 118.34959534 -2.76714759 90.57567617 -3.78790283 62.68473816 C-4.36992128 46.76028383 -4.88716508 30.84279763 -4.97540283 14.90739441 C-4.98837402 13.66235641 -5.00134521 12.41731842 -5.01470947 11.134552 C-5.01591797 9.99490494 -5.01712646 8.85525787 -5.01837158 7.68107605 C-5.02248047 6.67669998 -5.02658936 5.67232391 -5.03082275 4.63751221 C-4.66144905 1.0029631 -3.57041387 0.31663318 0 0 Z M32.21209717 28.24723816 C31.96143875 31.35725923 31.78093434 34.44378393 31.64959717 37.55973816 C31.60713867 38.51638367 31.56468018 39.47302917 31.52093506 40.45866394 C31.02262871 53.04967235 31.12209067 65.64909759 31.21209717 78.24723816 C47.96307234 84.8594652 75.15578575 83.38592833 91.77459717 76.99723816 C98.33041905 73.93310402 103.50190709 70.91832436 106.14959717 63.93473816 C108.49214361 55.16482992 107.58290956 47.27816174 103.21209717 39.24723816 C95.95328417 30.07013419 86.19372952 27.59879853 75.04559326 26.26725769 C52.34955071 22.99120091 52.34955071 22.99120091 32.21209717 28.24723816 Z " fill="#020000" transform="translate(181.78790283203125,14.752761840820313)"/>
<path d="M0 0 C1.12775345 0.00212242 1.12775345 0.00212242 2.27828979 0.00428772 C4.6829626 0.0098916 7.08754277 0.02244468 9.4921875 0.03515625 C11.12109241 0.04017075 12.74999877 0.04473375 14.37890625 0.04882812 C18.37503577 0.05986228 22.37109592 0.07712946 26.3671875 0.09765625 C21.9879636 15.93956719 13.56927929 29.10735986 -0.80078125 37.62890625 C-7.72596839 41.22045158 -14.7941101 43.81770259 -22.6328125 44.09765625 C-23.6228125 43.43765625 -24.6128125 42.77765625 -25.6328125 42.09765625 C-25.34148437 41.4634375 -25.05015625 40.82921875 -24.75 40.17578125 C-21.47988079 32.73060417 -19.07301141 25.23878882 -16.95263672 17.39355469 C-15.29763339 11.52486405 -13.10585641 6.14890059 -9.6328125 1.09765625 C-6.56686656 -0.43531672 -3.36169397 -0.0236583 0 0 Z " fill="#050000" transform="translate(300.6328125,167.90234375)"/>
<path d="M0 0 C2.0419071 3.06286065 3.47918646 6.08790818 5 9.4375 C5.99623154 11.6267188 6.99587479 13.81439052 8 16 C8.350625 16.77472656 8.70125 17.54945313 9.0625 18.34765625 C9.90070714 20.18253858 9.90070714 20.18253858 12 21 C12.350625 21.94875 12.70125 22.8975 13.0625 23.875 C15.44137747 29.74370279 19.86742829 34.29693859 24 39 C24.58007812 39.66515625 25.16015625 40.3303125 25.7578125 41.015625 C33.22873011 49.02791345 43.02585588 53.8135604 53 58 C53 58.33 53 58.66 53 59 C43.43 59 33.86 59 24 59 C21.28124595 54.24218041 19.43045097 50.89585016 17.81640625 45.91015625 C17.44580078 44.79576172 17.07519531 43.68136719 16.69335938 42.53320312 C15.94097825 40.22408178 15.19096778 37.91418662 14.44335938 35.60351562 C12.34111579 29.29678487 10.2443212 23.22116692 6 18 C2.9723567 16.48617835 -0.15901553 16.87015747 -3.47900391 16.88647461 C-4.6352401 16.88625557 -4.6352401 16.88625557 -5.81483459 16.8860321 C-8.36877229 16.88673011 -10.92263751 16.89451725 -13.4765625 16.90234375 C-15.24490316 16.90420833 -17.01324433 16.90563204 -18.78158569 16.90663147 C-23.44064759 16.9104535 -28.09967842 16.92028112 -32.75872803 16.93133545 C-37.51102274 16.94155631 -42.26332247 16.94613054 -47.015625 16.95117188 C-56.34376367 16.96190366 -65.67187925 16.97897633 -75 17 C-75.33 17.99 -75.66 18.98 -76 20 C-76.33 19.34 -76.66 18.68 -77 18 C-76.505 16.515 -76.505 16.515 -76 15 C-49.6 14.67 -23.2 14.34 4 14 C3.505 11.525 3.505 11.525 3 9 C2.34 9 1.68 9 1 9 C0.505 4.545 0.505 4.545 0 0 Z " fill="#F80102" transform="translate(366,152)"/>
<path d="M0 0 C7.07175968 3.31208998 13.04708594 10.30717667 16.046875 17.515625 C16.76351585 19.66554755 17.395547 21.81680359 18 24 C15.10359882 24.08120751 12.20949088 24.14059421 9.3125 24.1875 C8.49587891 24.21263672 7.67925781 24.23777344 6.83789062 24.26367188 C2.12081912 24.32096424 -1.28074245 24.2644371 -5 21 C-6.18926759 17.85254896 -5.9413327 16.00522279 -4.78515625 12.890625 C-4.51123047 12.13652344 -4.23730469 11.38242188 -3.95507812 10.60546875 C-3.51325195 9.43951172 -3.51325195 9.43951172 -3.0625 8.25 C-2.77181641 7.45722656 -2.48113281 6.66445312 -2.18164062 5.84765625 C-1.46405186 3.89487371 -0.73329094 1.94694059 0 0 Z " fill="#070101" transform="translate(308,113)"/>
<path d="M0 0 C2.0419071 3.06286065 3.47918646 6.08790818 5 9.4375 C5.99623154 11.6267188 6.99587479 13.81439052 8 16 C8.350625 16.77472656 8.70125 17.54945313 9.0625 18.34765625 C9.90070714 20.18253858 9.90070714 20.18253858 12 21 C12.350625 21.94875 12.70125 22.8975 13.0625 23.875 C15.38533656 29.73099323 19.93440279 34.28663468 24 39 C21 39 21 39 18 37 C17.67 37.99 17.34 38.98 17 40 C17.66 40 18.32 40 19 40 C19 42.31 19 44.62 19 47 C17.30552923 44.45829384 16.5279631 42.87865477 15.66796875 40.05078125 C15.42626953 39.28443359 15.18457031 38.51808594 14.93554688 37.72851562 C14.44338975 36.13896376 13.95626578 34.54784329 13.47460938 32.95507812 C11.73581172 27.48311384 9.53677474 22.56824234 6 18 C2.9723567 16.48617835 -0.15901553 16.87015747 -3.47900391 16.88647461 C-4.6352401 16.88625557 -4.6352401 16.88625557 -5.81483459 16.8860321 C-8.36877229 16.88673011 -10.92263751 16.89451725 -13.4765625 16.90234375 C-15.24490316 16.90420833 -17.01324433 16.90563204 -18.78158569 16.90663147 C-23.44064759 16.9104535 -28.09967842 16.92028112 -32.75872803 16.93133545 C-37.51102274 16.94155631 -42.26332247 16.94613054 -47.015625 16.95117188 C-56.34376367 16.96190366 -65.67187925 16.97897633 -75 17 C-75.33 17.99 -75.66 18.98 -76 20 C-76.33 19.34 -76.66 18.68 -77 18 C-76.505 16.515 -76.505 16.515 -76 15 C-49.6 14.67 -23.2 14.34 4 14 C3.505 11.525 3.505 11.525 3 9 C2.34 9 1.68 9 1 9 C0.505 4.545 0.505 4.545 0 0 Z " fill="#C90F10" transform="translate(366,152)"/>
<path d="M0 0 C0.33 0 0.66 0 1 0 C1.03758423 1.83159668 1.03758423 1.83159668 1.07592773 3.70019531 C1.17013579 8.23269045 1.27032384 12.76503714 1.37231445 17.29736328 C1.4156126 19.25859096 1.45729131 21.2198551 1.49731445 23.18115234 C1.55514099 26.00108828 1.61879984 28.82084161 1.68359375 31.640625 C1.70030624 32.51680481 1.71701874 33.39298462 1.73423767 34.29571533 C1.75418289 35.11626404 1.77412811 35.93681274 1.79467773 36.78222656 C1.81022202 37.50170471 1.8257663 38.22118286 1.84178162 38.96246338 C2.00564456 41.07269065 2.47973859 42.95243945 3 45 C3.09456369 47.48773864 3.14015721 49.9463134 3.1328125 52.43359375 C3.13376923 53.14854507 3.13472595 53.8634964 3.13571167 54.60011292 C3.13639064 56.10881641 3.13455611 57.61752286 3.13037109 59.1262207 C3.1250267 61.42601138 3.13032157 63.72560606 3.13671875 66.02539062 C3.13605776 67.49479209 3.13477618 68.96419344 3.1328125 70.43359375 C3.13483673 71.11707382 3.13686096 71.80055389 3.13894653 72.50474548 C3.1211998 76.1496019 2.73783188 79.44312688 2 83 C1.86594206 85.28053975 1.77658578 87.56391193 1.71875 89.84765625 C1.70034058 90.50019882 1.68193115 91.15274139 1.66296387 91.82505798 C1.60459642 93.90411935 1.55173312 95.98326373 1.5 98.0625 C1.26335787 107.40322921 0.90659103 116.69533937 0 126 C-0.33 126 -0.66 126 -1 126 C-1.09745144 115.99498518 -1.08178238 106.01366448 -0.64195251 96.01629639 C0.17839329 77.14031851 0.11776102 58.27287539 0.06866455 39.38311768 C0.0582236 34.92338554 0.05382362 30.46364721 0.04882812 26.00390625 C0.03827223 17.33592122 0.02132799 8.66796521 0 0 Z " fill="#D2100E" transform="translate(40,54)"/>
<path d="M0 0 C0.928125 0.845625 1.85625 1.69125 2.8125 2.5625 C10.68527285 9.27890984 19.49615677 14.01095942 29 18 C29 18.33 29 18.66 29 19 C24.92503897 19.09893453 20.85054344 19.17149694 16.7746582 19.21972656 C15.38846662 19.23983275 14.00235975 19.26712245 12.61645508 19.30175781 C10.62358094 19.35031225 8.63008611 19.37083972 6.63671875 19.390625 C5.43748779 19.41157227 4.23825684 19.43251953 3.00268555 19.45410156 C0 19 0 19 -1.91479492 17.16308594 C-3 15 -3 15 -3 12 C-2.34 12 -1.68 12 -1 12 C-0.67 13.65 -0.34 15.3 0 17 C3.63 17 7.26 17 11 17 C11 16.34 11 15.68 11 15 C10.34 14.67 9.68 14.34 9 14 C9 13.01 9 12.02 9 11 C8.01 11 7.02 11 6 11 C5.67 9.68 5.34 8.36 5 7 C3.68 6.67 2.36 6.34 1 6 C0.67 4.02 0.34 2.04 0 0 Z " fill="#D80A0A" transform="translate(390,192)"/>
<path d="M0 0 C0.66 0 1.32 0 2 0 C0.0408388 8.56268691 -2.16492878 16.99382788 -5 25.3125 C-5.2367041 26.03493896 -5.4734082 26.75737793 -5.71728516 27.50170898 C-7.14407084 31.56103517 -8.19214037 33.9357804 -12 36 C-14.63283143 36.18803303 -16.99408431 36.21355493 -19.609375 36.07421875 C-20.69958954 36.03455742 -20.69958954 36.03455742 -21.81182861 35.99409485 C-24.12541011 35.90656191 -26.43738075 35.7973386 -28.75 35.6875 C-30.32155749 35.62421689 -31.89317276 35.56235165 -33.46484375 35.50195312 C-37.31075905 35.35105929 -41.15537506 35.1807113 -45 35 C-44.67 33.68 -44.34 32.36 -44 31 C-44 31.66 -44 32.32 -44 33 C-33.11 33 -22.22 33 -11 33 C-10.34 31.35 -9.68 29.7 -9 28 C-8.35523433 26.68697518 -7.7093955 25.37447681 -7.0625 24.0625 C-4.75494816 18.95843552 -3.74671871 13.7179226 -2.7109375 8.234375 C-2.06611627 5.30079272 -1.20629405 2.74251469 0 0 Z " fill="#CB0F0F" transform="translate(285,176)"/>
<path d="M0 0 C0.33 0 0.66 0 1 0 C1.0093457 0.68288086 1.01869141 1.36576172 1.02832031 2.06933594 C1.24784967 14.91825994 1.72800555 27.31554725 4.71582031 39.85449219 C5.60954677 43.63712903 6.15595951 46.27799633 5 50 C5 49.34 5 48.68 5 48 C4.34 48 3.68 48 3 48 C1.41849888 40.84959602 0.40609762 33.68646614 -0.4375 26.41796875 C-0.94935326 23.30774928 -1.79165523 20.88492313 -3 18 C-3 17.01 -3 16.02 -3 15 C-2.34 15 -1.68 15 -1 15 C-0.67 10.05 -0.34 5.1 0 0 Z " fill="#BD1111" transform="translate(360,102)"/>
<path d="M0 0 C0.33 0.66 0.66 1.32 1 2 C2.93330603 3.09166275 2.93330603 3.09166275 5 4 C5.66 4.33 6.32 4.66 7 5 C7.625 8.0625 7.625 8.0625 8 11 C6.68 11.33 5.36 11.66 4 12 C4 13.65 4 15.3 4 17 C2 15 2 15 1.8046875 12.6171875 C1.82789063 11.71226562 1.85109375 10.80734375 1.875 9.875 C1.89304687 8.96492187 1.91109375 8.05484375 1.9296875 7.1171875 C1.95289063 6.41851562 1.97609375 5.71984375 2 5 C1.34 5 0.68 5 0 5 C0 3.35 0 1.7 0 0 Z " fill="#EA0404" transform="translate(383,187)"/>
<path d="M0 0 C0.33 0 0.66 0 1 0 C1.3553853 4.9753942 0.23480046 7.61979109 -2 12 C-2.165 13.19625 -2.33 14.3925 -2.5 15.625 C-3.02486717 19.16785339 -3.78346732 20.32168968 -6 23 C-6.70514846 25.14733927 -6.70514846 25.14733927 -7 27 C-7.66 27 -8.32 27 -9 27 C-6.75424696 17.70179445 -3.45076489 8.90051656 0 0 Z " fill="#D51010" transform="translate(266,135)"/>
<path d="M0 0 C3.59476701 3.49205938 6.92026191 7.04033675 10 11 C10 11.66 10 12.32 10 13 C8.125 12.75 8.125 12.75 6 12 C4.75 9.9375 4.75 9.9375 4 8 C2.68 8 1.36 8 0 8 C0 5.36 0 2.72 0 0 Z " fill="#EA070A" transform="translate(154,125)"/>
<path d="M0 0 C4.24292532 1.60630825 8.27025107 3.5768162 12.3125 5.625 C12.95767578 5.94984375 13.60285156 6.2746875 14.26757812 6.609375 C15.84597541 7.40441956 17.42311694 8.20195634 19 9 C19 9.33 19 9.66 19 10 C14.05 9.67 9.1 9.34 4 9 C4 8.67 4 8.34 4 8 C5.98 7.67 7.96 7.34 10 7 C8.7934375 6.814375 8.7934375 6.814375 7.5625 6.625 C6.716875 6.41875 5.87125 6.2125 5 6 C4.67 5.34 4.34 4.68 4 4 C1.98330173 2.86649466 1.98330173 2.86649466 0 2 C0 1.34 0 0.68 0 0 Z " fill="#A40E0F" transform="translate(400,201)"/>
<path d="M0 0 C0.66 0 1.32 0 2 0 C1.26951699 4.68803656 -0.36636885 8.90885555 -2.0625 13.3125 C-2.34416016 14.05306641 -2.62582031 14.79363281 -2.91601562 15.55664062 C-3.60718575 17.37242655 -4.30311689 19.18639899 -5 21 C-6.12896145 17.61311564 -5.86647201 15.97466041 -5.25 12.5 C-5.09015625 11.5409375 -4.9303125 10.581875 -4.765625 9.59375 C-3.9468524 6.81994893 -3.12119573 5.87230876 -1 4 C-0.28552357 1.89667109 -0.28552357 1.89667109 0 0 Z " fill="#3B0202" transform="translate(293,60)"/>
<path d="M0 0 C0.66 0.33 1.32 0.66 2 1 C1.938125 1.721875 1.87625 2.44375 1.8125 3.1875 C2.03780353 6.56705294 3.03368567 8.27741093 5 11 C5.66 11.33 6.32 11.66 7 12 C7.625 14.5625 7.625 14.5625 8 17 C4.00088286 13.34366433 -0.09974245 9.16664621 -2 4 C-1.12890625 1.75390625 -1.12890625 1.75390625 0 0 Z " fill="#E10C0E" transform="translate(101,100)"/>
<path d="M0 0 C0.8723412 2.99480917 1.10829766 5.63575911 1.0625 8.75 C1.05347656 9.54921875 1.04445313 10.3484375 1.03515625 11.171875 C1.01775391 12.07679688 1.01775391 12.07679688 1 13 C2.98 13.66 4.96 14.32 7 15 C5.3125 15.6875 5.3125 15.6875 3 16 C-1.61078975 13.9626743 -1.61078975 13.9626743 -2.734375 11.18359375 C-3.06369955 8.4763522 -2.49958847 6.79888063 -1.5625 4.25 C-1.27503906 3.45078125 -0.98757813 2.6515625 -0.69140625 1.828125 C-0.46324219 1.22484375 -0.23507812 0.6215625 0 0 Z " fill="#470100" transform="translate(305,121)"/>
<path d="M0 0 C1.1055189 0.93590504 2.20935453 1.87379858 3.3125 2.8125 C3.92738281 3.33457031 4.54226563 3.85664063 5.17578125 4.39453125 C6.85424679 5.87172469 8.43882034 7.40039131 10 9 C8.35 9 6.7 9 5 9 C5 8.34 5 7.68 5 7 C3.68 6.67 2.36 6.34 1 6 C0.67 4.02 0.34 2.04 0 0 Z " fill="#C70708" transform="translate(390,192)"/>
<path d="M0 0 C1 2 1 2 0.00390625 5.2578125 C-0.46889984 6.5497052 -0.94971969 7.83868638 -1.4375 9.125 C-1.68048828 9.78371094 -1.92347656 10.44242188 -2.17382812 11.12109375 C-2.77578321 12.74991338 -3.38702412 14.37529575 -4 16 C-4.33 16 -4.66 16 -5 16 C-4.48041715 11.62065881 -3.94324258 7.31196609 -3 3 C-2.34 3 -1.68 3 -1 3 C-0.67 2.01 -0.34 1.02 0 0 Z " fill="#D90D0C" transform="translate(308,111)"/>
<path d="M0 0 C4.83290538 4.049191 6.3833652 7.96719209 8 14 C7.01 14.495 7.01 14.495 6 15 C4.99267601 13.06629769 3.99436712 11.12789694 3 9.1875 C2.443125 8.10855469 1.88625 7.02960938 1.3125 5.91796875 C0 3 0 3 0 0 Z " fill="#861818" transform="translate(373,168)"/>
<path d="M0 0 C0.99 0.33 1.98 0.66 3 1 C3 2.65 3 4.3 3 6 C3.99 6.33 4.98 6.66 6 7 C6 8.98 6 10.96 6 13 C3.33753193 11.66876597 3.05398348 10.3235622 1.875 7.625 C1.52179688 6.83351562 1.16859375 6.04203125 0.8046875 5.2265625 C0 3 0 3 0 0 Z " fill="#2C0000" transform="translate(368,155)"/>
<path d="M0 0 C2.31 0.66 4.62 1.32 7 2 C7 4.31 7 6.62 7 9 C4.03595495 6.19195732 1.55500981 3.81684226 0 0 Z " fill="#E20D12" transform="translate(112,121)"/>
<path d="M0 0 C0.66 0 1.32 0 2 0 C1.45660208 4.56454251 0.20536179 7.9728176 -2 12 C-2.98120464 8.94736336 -2.98120464 7.05263664 -2 4 C-1.34 4 -0.68 4 0 4 C0 2.68 0 1.36 0 0 Z " fill="#350000" transform="translate(277,100)"/>
<path d="M0 0 C-0.45082469 1.46067199 -0.91093537 2.91848032 -1.375 4.375 C-1.63023437 5.18710938 -1.88546875 5.99921875 -2.1484375 6.8359375 C-3 9 -3 9 -5 11 C-5.08096803 9.54257537 -5.13917774 8.08387193 -5.1875 6.625 C-5.22230469 5.81289062 -5.25710938 5.00078125 -5.29296875 4.1640625 C-5.19628906 3.44992188 -5.09960938 2.73578125 -5 2 C-2 0 -2 0 0 0 Z " fill="#D70D0D" transform="translate(320,84)"/>
<path d="M0 0 C1.43410153 3.78819273 0.51009497 6.06521279 -0.9375 9.75 C-1.31777344 10.73484375 -1.69804687 11.7196875 -2.08984375 12.734375 C-2.39019531 13.48203125 -2.69054687 14.2296875 -3 15 C-3.33 15 -3.66 15 -4 15 C-4.26252625 10.66831683 -3.29243536 7.1196377 -2 3 C-1.34 3 -0.68 3 0 3 C0 2.01 0 1.02 0 0 Z " fill="#3A0101" transform="translate(247,183)"/>
<path d="M0 0 C0.33 0 0.66 0 1 0 C1.05382106 2.62527189 1.09358313 5.24944713 1.125 7.875 C1.14175781 8.62136719 1.15851562 9.36773437 1.17578125 10.13671875 C1.1933959 12.09194461 1.10320189 14.04742021 1 16 C0.34 16.66 -0.32 17.32 -1 18 C-2 15 -2 15 -1 12 C-0.77674186 9.94106379 -0.59294241 7.87766347 -0.4375 5.8125 C-0.35371094 4.72582031 -0.26992188 3.63914063 -0.18359375 2.51953125 C-0.12300781 1.68808594 -0.06242187 0.85664063 0 0 Z " fill="#E90807" transform="translate(40,168)"/>
<path d="M0 0 C1 3 1 3 0.29296875 4.90234375 C-0.25423828 5.90974609 -0.25423828 5.90974609 -0.8125 6.9375 C-1.16957031 7.60652344 -1.52664063 8.27554688 -1.89453125 8.96484375 C-2.44173828 9.97224609 -2.44173828 9.97224609 -3 11 C-3.67127626 12.33101856 -4.33931905 13.66369057 -5 15 C-5 13.02 -5 11.04 -5 9 C-4.34 9 -3.68 9 -3 9 C-3.061875 8.2575 -3.12375 7.515 -3.1875 6.75 C-2.96905704 3.54616994 -2.09749995 2.35968744 0 0 Z " fill="#400101" transform="translate(286,81)"/>
<path d="M0 0 C0 0.99 0 1.98 0 3 C0.639375 3.12375 1.27875 3.2475 1.9375 3.375 C2.618125 3.58125 3.29875 3.7875 4 4 C4.33 4.66 4.66 5.32 5 6 C0.69159287 4.92289822 -2.63576723 3.96052484 -6 1 C-3.92446352 0.4465236 -2.15634036 0 0 0 Z " fill="#250000" transform="translate(414,204)"/>
<path d="M0 0 C2.5 2.3125 2.5 2.3125 5 5 C5 5.99 5 6.98 5 8 C3.35 8 1.7 8 0 8 C0 5.36 0 2.72 0 0 Z " fill="#E00D0A" transform="translate(148,117)"/>
<path d="M0 0 C1.15957207 3.47871621 0.77456651 4.34219645 -0.4375 7.6875 C-0.72496094 8.49574219 -1.01242187 9.30398437 -1.30859375 10.13671875 C-1.65083984 11.05904297 -1.65083984 11.05904297 -2 12 C-2.33 12 -2.66 12 -3 12 C-3 9.03 -3 6.06 -3 3 C-2.34 3 -1.68 3 -1 3 C-0.67 2.01 -0.34 1.02 0 0 Z " fill="#CC0C0D" transform="translate(368,68)"/>
<path d="M0 0 C0.66 0 1.32 0 2 0 C2.33 0.66 2.66 1.32 3 2 C3.99 1.67 4.98 1.34 6 1 C6 3.31 6 5.62 6 8 C1.125 3.375 1.125 3.375 0 0 Z " fill="#DE0E0E" transform="translate(93,96)"/>
<path d="M0 0 C2.64 0 5.28 0 8 0 C6.68 1.32 5.36 2.64 4 4 C3.67 3.34 3.34 2.68 3 2 C2.01 2 1.02 2 0 2 C0 1.34 0 0.68 0 0 Z " fill="#180001" transform="translate(291,169)"/>
<path d="M0 0 C0.33 0 0.66 0 1 0 C1 3.63 1 7.26 1 11 C0.34 11 -0.32 11 -1 11 C-1.33 9.35 -1.66 7.7 -2 6 C-1.34 6 -0.68 6 0 6 C0 4.02 0 2.04 0 0 Z " fill="#D80D0C" transform="translate(359,111)"/>
<path d="M0 0 C2 1 2 1 4 3 C4.36933645 5.75372909 4.18336678 8.20365661 4 11 C1.55160412 7.32740617 0 4.45351799 0 0 Z " fill="#D41313" transform="translate(353,106)"/>
<path d="M0 0 C4.875 4.625 4.875 4.625 6 8 C4.68 8.33 3.36 8.66 2 9 C1.34 6.03 0.68 3.06 0 0 Z " fill="#DA0E0C" transform="translate(97,49)"/>
<path d="M0 0 C0.66 0 1.32 0 2 0 C2 0.66 2 1.32 2 2 C3.32 2.33 4.64 2.66 6 3 C6 4.65 6 6.3 6 8 C1.125 3.375 1.125 3.375 0 0 Z " fill="#DB1010" transform="translate(125,138)"/>
<path d="M0 0 C4.875 4.625 4.875 4.625 6 8 C4.68 7.67 3.36 7.34 2 7 C1.34 4.69 0.68 2.38 0 0 Z " fill="#D60E11" transform="translate(158,130)"/>
<path d="M0 0 C2.5 2.3125 2.5 2.3125 5 5 C5 5.99 5 6.98 5 8 C3.0625 7.375 3.0625 7.375 1 6 C0.25 2.875 0.25 2.875 0 0 Z " fill="#D41118" transform="translate(106,61)"/>
</svg>
